# xmcd
#
# Track frame offsets:
#	183
#	13720
#	25895
#	36158
#	49808
#	60545
#	71283
#	81320
#	92770
#	104670
#	119795
#	132395
#	143258
#	157133
#	167445
#	177695
#
# Disc length: 2583 seconds
#
# Revision: 6
# Processed by: cddbd v1.5.2PL0 Copyright (c) Steve Scherf et al.
# Submitted via: VUPlayer 2.49
#
DISCID=e00a1510
DTITLE=Various Artist - Teenage Rebels - Beautiful Sunday
DYEAR=1991
DGENRE=Oldies
TTITLE0=Daniel Boone - Beautiful Sunday
TTITLE1=Kincade - Dreams Are Ten A Penny
TTITLE2=David Garrick - Dear Mrs. Applebee
TTITLE3=Shocking Blue - Venus
TTITLE4=The Move - Flowers in the Rain
TTITLE5=Sandie Shaw - Puppet On A String
TTITLE6=Unit Four Plus Two - Concrete and Clay
TTITLE7=Chris Andrews - Yesterday Man
TTITLE8=The Tremeloes - My Little Lady
TTITLE9=Sweet Sensation - Sad Sweet Dreamer
TTITLE10=Mungo Jerry - Alright, Alright, Alright
TTITLE11=Melanie - Brand New Key
TTITLE12=Vanity Fare - Hitchin' A Ride
TTITLE13=Chris Montez - Let's Dance
TTITLE14=1910 Fruitgum Company - Simon Says
TTITLE15=The Kinks - Sunny Afternoon
EXTD=
EXTT0=
EXTT1=
EXTT2=
EXTT3=
EXTT4=
EXTT5=
EXTT6=
EXTT7=
EXTT8=
EXTT9=
EXTT10=
EXTT11=
EXTT12=
EXTT13=
EXTT14=
EXTT15=
PLAYORDER=
